<svg width="60" height="59" viewBox="0 0 60 59" fill="none" xmlns="http://www.w3.org/2000/svg">
<path d="M45.5263 30.026C45.5263 38.43 38.7135 45.243 30.3093 45.243C21.9052 45.243 15.0923 38.43 15.0923 30.026C15.0923 21.6219 21.9051 14.809 30.3093 14.809C38.7133 14.809 45.5263 21.6218 45.5263 30.026Z" fill="black"/>
<path d="M26.7622 9.99542L30.5798 0.170166L33.8561 9.99542H26.7622Z" fill="black"/>
<path d="M26.7622 49.1764L30.5798 59.0003L33.8561 49.1764H26.7622Z" fill="black"/>
<path d="M10.6579 33.5709L0.833984 29.7508L10.6579 26.4769V33.5709Z" fill="black"/>
<path d="M49.8428 33.5709L59.6641 29.7508L49.8428 26.4769V33.5709Z" fill="black"/>
<path d="M13.9295 18.1975L9.68457 8.5531L18.9468 13.1816L13.9295 18.1975Z" fill="black"/>
<path d="M41.6343 45.9078L51.2852 50.1502L46.6516 40.8879L41.6343 45.9078Z" fill="black"/>
<path d="M19.2139 46.2579L9.56689 50.5003L14.1979 41.238L19.2139 46.2579Z" fill="black"/>
<path d="M46.922 18.5501L51.1618 8.90051L41.9048 13.5354L46.922 18.5501Z" fill="black"/>
</svg>
