<svg width="53" height="52" viewBox="0 0 53 52" fill="none" xmlns="http://www.w3.org/2000/svg">
<circle cx="26.6074" cy="26.0002" r="25.5" stroke="black"/>
<mask id="path-2-inside-1" fill="white">
<path fill-rule="evenodd" clip-rule="evenodd" d="M26.6074 0.000244141V25.4814L41.8223 46.7609C48.3725 42.0161 52.6074 34.4743 52.6074 25.9814C52.6074 11.9568 41.0592 0.525744 26.6074 0.000244141Z"/>
</mask>
<path fill-rule="evenodd" clip-rule="evenodd" d="M26.6074 0.000244141V25.4814L41.8223 46.7609C48.3725 42.0161 52.6074 34.4743 52.6074 25.9814C52.6074 11.9568 41.0592 0.525744 26.6074 0.000244141Z" fill="#C4C4C4"/>
<path d="M26.6074 25.4814H25.6074V25.8021L25.794 26.063L26.6074 25.4814ZM26.6074 0.000244141L26.6438 -0.999095L25.6074 -1.03678V0.000244141H26.6074ZM41.8223 46.7609L41.0089 47.3426L41.5941 48.1611L42.409 47.5708L41.8223 46.7609ZM27.6074 25.4814V0.000244141H25.6074V25.4814H27.6074ZM42.6358 46.1793L27.4209 24.8997L25.794 26.063L41.0089 47.3426L42.6358 46.1793ZM51.6074 25.9814C51.6074 34.1306 47.5455 41.3804 41.2357 45.9511L42.409 47.5708C49.1994 42.6519 53.6074 34.818 53.6074 25.9814H51.6074ZM26.5711 0.999584C40.5225 1.50689 51.6074 12.5316 51.6074 25.9814H53.6074C53.6074 11.382 41.596 -0.455399 26.6438 -0.999095L26.5711 0.999584Z" fill="black" mask="url(#path-2-inside-1)"/>
<line x1="26.1074" y1="50.0002" x2="26.1074" y2="46.0002" stroke="black"/>
<line x1="2.60742" y1="25.5002" x2="6.60742" y2="25.5002" stroke="black"/>
<line x1="46.6074" y1="25.5002" x2="50.6074" y2="25.5002" stroke="black"/>
<line x1="11.8589" y1="13.3439" x2="9.23046" y2="10.3288" stroke="black"/>
<line x1="44.8589" y1="42.3439" x2="42.2305" y2="39.3288" stroke="black"/>
<line x1="9.27886" y1="43.1653" x2="12.294" y2="40.5369" stroke="black"/>
<line x1="42.4454" y1="14.2518" x2="45.4605" y2="11.6233" stroke="black"/>
</svg>
